<svg width="231" height="70" viewBox="0 0 231 70" fill="none" xmlns="http://www.w3.org/2000/svg">
<g clip-path="url(#clip0_121_1053)">
<path d="M221.902 68.8138H8.61396C3.8363 68.8138 0.082428 65.0554 0.082428 60.272V9.02128C0.082428 4.23788 3.8363 0.479492 8.61396 0.479492H221.902C226.68 0.479492 230.434 4.23788 230.434 9.02128V60.272C230.434 65.0554 226.68 68.8138 221.902 68.8138Z" fill="#F4F6F5"/>
<path d="M80.9613 17.9049C80.9613 19.2716 80.6201 20.4675 79.7669 21.3216C78.7431 22.3466 77.5487 22.8592 76.013 22.8592C74.4774 22.8592 73.2829 22.3466 72.2592 21.3216C71.2354 20.2966 70.7235 19.1008 70.7235 17.5632C70.7235 16.0257 71.2354 14.8299 72.2592 13.8049C73.2829 12.7798 74.4774 12.2673 76.013 12.2673C76.6955 12.2673 77.3781 12.4382 78.0606 12.7798C78.7431 13.1215 79.255 13.4632 79.5963 13.9757L78.7431 14.8299C78.0606 13.9757 77.2074 13.634 76.013 13.634C74.9892 13.634 73.9655 13.9757 73.2829 14.8299C72.4298 15.5132 72.0885 16.5382 72.0885 17.7341C72.0885 18.9299 72.4298 19.9549 73.2829 20.6383C74.1361 21.3216 74.9892 21.8341 76.013 21.8341C77.2074 21.8341 78.0606 21.4925 78.9137 20.6383C79.4256 20.1258 79.7669 19.4424 79.7669 18.5883H76.013V17.2216H80.9613V17.9049ZM88.8103 13.634H84.2033V16.8799H88.4691V18.0758H84.2033V21.3216H88.8103V22.6883H82.8383V12.4382H88.8103V13.634ZM94.4411 22.6883H93.0761V13.634H90.1754V12.4382H97.3419V13.634H94.4411V22.6883ZM102.29 22.6883V12.4382H103.655V22.6883H102.29ZM109.457 22.6883H108.092V13.634H105.191V12.4382H112.187V13.634H109.286V22.6883H109.457ZM125.667 21.3216C124.643 22.3466 123.448 22.8592 121.913 22.8592C120.377 22.8592 119.183 22.3466 118.159 21.3216C117.135 20.2966 116.623 19.1008 116.623 17.5632C116.623 16.0257 117.135 14.8299 118.159 13.8049C119.183 12.7798 120.377 12.2673 121.913 12.2673C123.448 12.2673 124.643 12.7798 125.667 13.8049C126.69 14.8299 127.202 16.0257 127.202 17.5632C127.202 19.1008 126.69 20.2966 125.667 21.3216ZM119.183 20.4675C119.865 21.1508 120.889 21.6633 121.913 21.6633C122.936 21.6633 123.96 21.3216 124.643 20.4675C125.325 19.7841 125.837 18.7591 125.837 17.5632C125.837 16.3674 125.496 15.3424 124.643 14.659C123.96 13.9757 122.936 13.4632 121.913 13.4632C120.889 13.4632 119.865 13.8049 119.183 14.659C118.5 15.3424 117.988 16.3674 117.988 17.5632C117.988 18.7591 118.329 19.7841 119.183 20.4675ZM129.079 22.6883V12.4382H130.615L135.563 20.4675V12.4382H136.928V22.6883H135.563L130.274 14.3174V22.6883H129.079Z" fill="#221859" stroke="#221859" stroke-width="1.18519" stroke-miterlimit="10"/>
<path d="M116.282 37.7217C112.187 37.7217 108.945 40.7967 108.945 45.0676C108.945 49.1677 112.187 52.4135 116.282 52.4135C120.377 52.4135 123.619 49.3385 123.619 45.0676C123.619 40.6259 120.377 37.7217 116.282 37.7217ZM116.282 49.3385C114.064 49.3385 112.187 47.4593 112.187 44.8968C112.187 42.3342 114.064 40.455 116.282 40.455C118.5 40.455 120.377 42.1634 120.377 44.8968C120.377 47.4593 118.5 49.3385 116.282 49.3385ZM100.413 37.7217C96.3181 37.7217 93.0761 40.7967 93.0761 45.0676C93.0761 49.1677 96.3181 52.4135 100.413 52.4135C104.508 52.4135 107.75 49.3385 107.75 45.0676C107.75 40.6259 104.508 37.7217 100.413 37.7217ZM100.413 49.3385C98.195 49.3385 96.3181 47.4593 96.3181 44.8968C96.3181 42.3342 98.195 40.455 100.413 40.455C102.631 40.455 104.508 42.1634 104.508 44.8968C104.508 47.4593 102.631 49.3385 100.413 49.3385ZM81.4732 39.9425V43.0176H88.8104C88.6397 44.7259 87.9572 46.0926 87.104 46.9468C86.0803 47.9718 84.374 49.1677 81.4732 49.1677C76.8662 49.1677 73.4536 45.5801 73.4536 40.9675C73.4536 36.355 77.0368 32.7674 81.4732 32.7674C83.8621 32.7674 85.739 33.7924 87.104 34.9883L89.3222 32.7674C87.4453 31.0591 85.0565 29.6924 81.6439 29.6924C75.5012 29.6924 70.2116 34.8175 70.2116 40.9675C70.2116 47.1176 75.5012 52.2427 81.6439 52.2427C85.0565 52.2427 87.4453 51.2177 89.4929 48.9968C91.5404 46.9468 92.223 44.0426 92.223 41.8217C92.223 41.1384 92.223 40.455 92.0523 39.9425H81.4732ZM158.94 42.3342C158.257 40.6259 156.551 37.7217 152.797 37.7217C149.043 37.7217 145.972 40.6259 145.972 45.0676C145.972 49.1677 149.043 52.4135 153.138 52.4135C156.38 52.4135 158.428 50.3635 159.11 49.1677L156.721 47.4593C155.868 48.6552 154.844 49.5093 153.138 49.5093C151.432 49.5093 150.408 48.826 149.555 47.2885L159.281 43.1884L158.94 42.3342ZM149.043 44.7259C149.043 41.9926 151.261 40.455 152.797 40.455C153.991 40.455 155.186 41.1384 155.527 41.9926L149.043 44.7259ZM141.023 51.7302H144.265V30.3757H141.023V51.7302ZM135.904 39.2592C135.051 38.405 133.686 37.5508 131.98 37.5508C128.397 37.5508 124.984 40.7967 124.984 44.8968C124.984 48.9968 128.226 52.0719 131.98 52.0719C133.686 52.0719 135.051 51.2177 135.734 50.3635H135.904V51.3885C135.904 54.1219 134.369 55.6594 131.98 55.6594C130.103 55.6594 128.738 54.2927 128.397 53.0969L125.667 54.2927C126.52 56.1719 128.567 58.5636 132.151 58.5636C135.904 58.5636 138.976 56.3428 138.976 51.0469V38.0633H135.904V39.2592ZM132.151 49.3385C129.932 49.3385 128.055 47.4593 128.055 44.8968C128.055 42.3342 129.932 40.455 132.151 40.455C134.369 40.455 136.075 42.3342 136.075 44.8968C136.075 47.4593 134.369 49.3385 132.151 49.3385ZM173.784 30.3757H166.106V51.7302H169.348V43.7009H173.784C177.368 43.7009 180.78 41.1384 180.78 37.0383C180.78 32.9383 177.368 30.3757 173.784 30.3757ZM173.955 40.6259H169.348V33.2799H173.955C176.344 33.2799 177.709 35.33 177.709 36.8675C177.538 38.7467 176.173 40.6259 173.955 40.6259ZM193.578 37.5508C191.189 37.5508 188.8 38.5758 187.947 40.7967L190.847 41.9926C191.53 40.7967 192.554 40.455 193.748 40.455C195.454 40.455 196.99 41.4801 197.161 43.1884V43.3592C196.649 43.0176 195.284 42.5051 193.919 42.5051C190.847 42.5051 187.776 44.2134 187.776 47.2885C187.776 50.1927 190.336 52.0719 193.066 52.0719C195.284 52.0719 196.308 51.0469 197.161 50.0218H197.331V51.7302H200.403V43.5301C200.062 39.7717 197.161 37.5508 193.578 37.5508ZM193.236 49.3385C192.213 49.3385 190.677 48.826 190.677 47.4593C190.677 45.7509 192.554 45.2384 194.089 45.2384C195.454 45.2384 196.137 45.5801 196.99 45.9218C196.649 47.9718 194.943 49.3385 193.236 49.3385ZM211.153 38.0633L207.569 47.2885H207.399L203.645 38.0633H200.232L205.863 51.0469L202.621 58.222H205.863L214.565 38.0633H211.153ZM182.487 51.7302H185.729V30.3757H182.487V51.7302Z" fill="#221859"/>
<path d="M17.828 13.2922C17.3161 13.8047 17.1455 14.6589 17.1455 15.6839V53.4387C17.1455 54.4637 17.4868 55.3178 17.9987 55.8304L18.1693 56.0012L39.3275 34.8175V34.4759L17.828 13.2922Z" fill="url(#paint0_linear_121_1053)"/>
<path d="M46.1527 41.9925L39.1569 34.9882V34.4757L46.1527 27.4714L46.3233 27.6423L54.6842 32.4257C57.0731 33.7924 57.0731 36.0132 54.6842 37.3799L46.1527 41.9925Z" fill="url(#paint1_linear_121_1053)"/>
<path d="M46.3233 41.8218L39.1569 34.6467L17.828 56.0012C18.6812 56.8554 19.8756 56.8554 21.4113 56.172L46.3233 41.8218Z" fill="url(#paint2_linear_121_1053)"/>
<path d="M46.3233 27.4717L21.4113 13.2923C19.8756 12.4381 18.6812 12.609 17.828 13.4631L39.1569 34.6468L46.3233 27.4717Z" fill="url(#paint3_linear_121_1053)"/>
<path opacity="0.2" d="M46.1527 41.6509L21.4113 55.6594C20.0462 56.5136 18.8518 56.3428 17.9987 55.6594L17.828 55.8303L17.9987 56.0011C18.8518 56.6844 20.0462 56.8553 21.4113 56.0011L46.1527 41.6509Z" fill="black"/>
<path opacity="0.12" d="M17.828 55.6595C17.3161 55.147 17.1455 54.2928 17.1455 53.2678V53.4387C17.1455 54.4637 17.4868 55.3179 17.9987 55.8304V55.6595H17.828ZM54.6842 36.8676L46.1527 41.651L46.3233 41.8218L54.6842 37.0384C55.8787 36.3551 56.3906 35.5009 56.3906 34.6467C56.3906 35.5009 55.708 36.1842 54.6842 36.8676Z" fill="black"/>
<path opacity="0.25" d="M21.4113 13.463L54.6842 32.4258C55.708 33.1091 56.3906 33.7925 56.3906 34.6467C56.3906 33.7925 55.8787 32.9383 54.6842 32.255L21.4113 13.2922C19.0224 11.9255 17.1455 12.9505 17.1455 15.6839V15.8547C17.1455 13.2922 19.0224 12.0963 21.4113 13.463Z" fill="white"/>
</g>
<defs>
<linearGradient id="paint0_linear_121_1053" x1="37.2799" y1="15.3593" x2="8.60857" y2="43.9946" gradientUnits="userSpaceOnUse">
<stop stop-color="#00A0FF"/>
<stop offset="0.007" stop-color="#00A1FF"/>
<stop offset="0.26" stop-color="#00BEFF"/>
<stop offset="0.512" stop-color="#00D2FF"/>
<stop offset="0.76" stop-color="#00DFFF"/>
<stop offset="1" stop-color="#00E3FF"/>
</linearGradient>
<linearGradient id="paint1_linear_121_1053" x1="57.8136" y1="34.6482" x2="16.5261" y2="34.6482" gradientUnits="userSpaceOnUse">
<stop stop-color="#FFE000"/>
<stop offset="0.409" stop-color="#FFBD00"/>
<stop offset="0.775" stop-color="#FFA500"/>
<stop offset="1" stop-color="#FF9C00"/>
</linearGradient>
<linearGradient id="paint2_linear_121_1053" x1="42.4449" y1="38.5691" x2="3.56614" y2="77.4012" gradientUnits="userSpaceOnUse">
<stop stop-color="#FF3A44"/>
<stop offset="1" stop-color="#C31162"/>
</linearGradient>
<linearGradient id="paint3_linear_121_1053" x1="12.5334" y1="0.78028" x2="29.8954" y2="18.1215" gradientUnits="userSpaceOnUse">
<stop stop-color="#32A071"/>
<stop offset="0.069" stop-color="#2DA771"/>
<stop offset="0.476" stop-color="#15CF74"/>
<stop offset="0.801" stop-color="#06E775"/>
<stop offset="1" stop-color="#00F076"/>
</linearGradient>
<clipPath id="clip0_121_1053">
<rect width="230.351" height="68.8062" fill="white" transform="translate(0.082428 0.243652)"/>
</clipPath>
</defs>
</svg>
