<svg width="213" height="69" viewBox="0 0 213 69" fill="none" xmlns="http://www.w3.org/2000/svg">
<g clip-path="url(#clip0_121_1042)">
<path d="M213 62.0834C213 62.9923 212.842 63.8923 212.535 64.7319C212.228 65.5716 211.779 66.3344 211.212 66.9767C210.645 67.6191 209.972 68.1284 209.231 68.4756C208.49 68.8227 207.697 69.0009 206.895 69H7.11278C5.49354 69.0019 3.93992 68.2743 2.79359 66.9773C1.64727 65.6802 1.00211 63.9199 1 62.0834V6.92564C1.00211 5.08833 1.64701 3.32706 2.79311 2.02856C3.9392 0.730064 5.4928 0.00047691 7.11278 0H206.894C207.695 -3.0933e-08 208.489 0.17915 209.23 0.527219C209.971 0.875287 210.644 1.38545 211.211 2.02858C211.778 2.67171 212.227 3.4352 212.534 4.27545C212.841 5.1157 212.999 6.01624 212.998 6.92564L213 62.0834Z" fill="white"/>
<path d="M212.898 62.1527C212.898 63.0591 212.739 63.9565 212.432 64.7938C212.125 65.6311 211.674 66.3917 211.106 67.0323C210.538 67.6729 209.863 68.1808 209.121 68.5269C208.379 68.8731 207.584 69.0508 206.781 69.0499H6.62016C4.99784 69.0518 3.44128 68.3263 2.29278 67.0329C1.14428 65.7394 0.497903 63.984 0.495789 62.1527V7.14985C0.497902 5.3177 1.14403 3.56137 2.2923 2.26652C3.44056 0.971666 4.99711 0.244128 6.62016 0.243652H206.78C207.583 0.243652 208.379 0.422299 209.121 0.76939C209.863 1.11648 210.537 1.62522 211.105 2.26654C211.673 2.90786 212.124 3.66921 212.431 4.5071C212.738 5.34499 212.896 6.243 212.896 7.14985L212.898 62.1527Z" fill="#F4F6F5"/>
<path d="M53.7899 34.0467C53.7372 28.2462 58.5891 25.4242 58.811 25.2929C56.0631 21.3281 51.804 20.7864 50.3074 20.7432C46.7302 20.3706 43.2604 22.8614 41.4382 22.8614C39.5796 22.8614 36.7735 20.7792 33.7493 20.8403C29.8575 20.8997 26.2167 23.1296 24.2199 26.5923C20.0991 33.6526 23.1725 44.028 27.1206 49.7349C29.0955 52.5316 31.4033 55.6506 34.424 55.5408C37.3791 55.422 38.483 53.6781 42.0492 53.6781C45.5827 53.6781 46.6193 55.5408 49.7 55.4706C52.8715 55.422 54.8683 52.663 56.7742 49.8429C59.0565 46.6412 59.9731 43.4844 60.0094 43.3225C59.9367 43.2973 53.8518 40.9972 53.7899 34.0467ZM47.9705 16.9889C49.5599 15.0218 50.6474 12.3457 50.3455 9.62988C48.0451 9.73067 45.1681 11.2046 43.5114 13.1285C42.0456 14.8239 40.7362 17.6026 41.0745 20.2158C43.6587 20.4066 46.312 18.9254 47.9705 16.9889Z" fill="#221859"/>
<path d="M93.0317 50.5692H90.0492L88.4155 45.5275H82.7369L81.1806 50.5692H78.277L83.9044 33.405H87.3793L93.0317 50.5692ZM87.923 43.4123L86.4456 38.9303C86.2893 38.4725 85.9951 37.3942 85.5644 35.6969H85.5118C85.3385 36.4269 85.0614 37.5051 84.6819 38.9303L83.2294 43.4123H87.923ZM107.475 44.2287C107.475 46.3336 106.893 47.9974 105.729 49.2188C104.686 50.3061 103.39 50.8491 101.844 50.8491C100.175 50.8491 98.9743 50.2648 98.2455 49.0937V55.5877H95.4455V42.2605C95.4455 40.9385 95.4101 39.583 95.3418 38.1926H97.8042L97.9605 40.1543H98.013C98.9468 38.6762 100.364 37.9372 102.265 37.9372C103.752 37.9372 104.993 38.5137 105.986 39.6681C106.977 40.825 107.475 42.3443 107.475 44.2287ZM104.623 44.3293C104.623 43.1247 104.347 42.1315 103.793 41.3486C103.187 40.5348 102.374 40.1272 101.355 40.1272C100.665 40.1272 100.037 40.3542 99.476 40.8018C98.9139 41.2532 98.5462 41.8426 98.3742 42.5726C98.2974 42.8456 98.2537 43.1266 98.2441 43.4097V45.4746C98.2441 46.3736 98.5252 47.1333 99.0873 47.7549C99.6494 48.374 100.38 48.6849 101.278 48.6849C102.332 48.6849 103.153 48.2837 103.74 47.4879C104.329 46.6896 104.623 45.6371 104.623 44.3293ZM121.97 44.2287C121.97 46.3336 121.388 47.9974 120.223 49.2188C119.179 50.3061 117.884 50.8491 116.337 50.8491C114.668 50.8491 113.468 50.2648 112.739 49.0937V55.5877H109.939V42.2605C109.939 40.9385 109.903 39.583 109.835 38.1926H112.298L112.454 40.1543H112.506C113.439 38.6762 114.856 37.9372 116.759 37.9372C118.244 37.9372 119.485 38.5137 120.481 39.6681C121.471 40.825 121.97 42.3443 121.97 44.2287ZM119.116 44.3293C119.116 43.1247 118.839 42.1315 118.285 41.3486C117.679 40.5348 116.869 40.1272 115.85 40.1272C115.159 40.1272 114.532 40.3542 113.968 40.8018C113.406 41.2532 113.04 41.8426 112.868 42.5726C112.782 42.9131 112.736 43.1904 112.736 43.4097V45.4746C112.736 46.3736 113.019 47.1333 113.578 47.7549C114.14 48.3727 114.87 48.6849 115.771 48.6849C116.827 48.6849 117.648 48.2837 118.234 47.4879C118.822 46.6896 119.116 45.6371 119.116 44.3293ZM138.176 45.7545C138.176 47.2158 137.656 48.4037 136.622 49.3207C135.485 50.3216 133.897 50.8233 131.862 50.8233C129.981 50.8233 128.473 50.4673 127.336 49.7541L127.983 47.4622C129.211 48.1767 130.56 48.5327 132.028 48.5327C133.084 48.5327 133.905 48.2979 134.491 47.8323C135.078 47.3654 135.375 46.7412 135.375 45.9622C135.375 45.2644 135.129 44.6801 134.647 44.2042C134.162 43.7296 133.361 43.2872 132.236 42.8809C129.176 41.7601 127.645 40.1208 127.645 37.9643C127.645 36.5559 128.186 35.4028 129.265 34.5013C130.345 33.601 131.776 33.1509 133.557 33.1509C135.147 33.1509 136.473 33.423 137.524 33.966L136.822 36.2076C135.832 35.6814 134.714 35.4183 133.464 35.4183C132.476 35.4183 131.701 35.6569 131.147 36.1315C130.681 36.5559 130.445 37.0731 130.445 37.687C130.445 38.3641 130.714 38.9265 131.25 39.3676C131.715 39.7738 132.563 40.2162 133.79 40.6909C135.295 41.2867 136.4 41.9806 137.108 42.7777C137.821 43.5748 138.176 44.5692 138.176 45.7545ZM147.457 40.2562H144.371V46.2652C144.371 47.7936 144.914 48.5559 146.004 48.5559C146.505 48.5559 146.92 48.5146 147.248 48.4282L147.326 50.5163C146.774 50.7188 146.048 50.8207 145.148 50.8207C144.042 50.8207 143.178 50.4892 142.554 49.8263C141.933 49.1634 141.621 48.0529 141.621 46.4897V40.2511H139.782V38.1874H141.621V35.9213L144.371 35.1062V38.1874H147.457V40.2562ZM161.354 44.279C161.354 46.1814 160.8 47.7433 159.694 48.9647C158.537 50.2223 156.998 50.8491 155.079 50.8491C153.227 50.8491 151.755 50.2468 150.657 49.0434C149.559 47.8375 149.01 46.3181 149.01 44.4854C149.01 42.5675 149.578 40.9965 150.709 39.7751C151.842 38.5524 153.368 37.9411 155.287 37.9411C157.136 37.9411 158.621 38.5447 159.745 39.7493C160.82 40.9179 161.354 42.4269 161.354 44.279ZM158.452 44.3422C158.452 43.2085 158.202 42.236 157.702 41.4222C157.115 40.4394 156.274 39.948 155.186 39.948C154.064 39.948 153.204 40.4394 152.618 41.4222C152.116 42.236 151.867 43.2253 151.867 44.3938C151.867 45.5288 152.116 46.5039 152.618 47.3151C153.224 48.2979 154.068 48.7893 155.162 48.7893C156.232 48.7893 157.071 48.2876 157.678 47.2906C158.193 46.4574 158.452 45.4785 158.452 44.3422ZM170.459 40.6109C170.168 40.5593 169.872 40.5338 169.577 40.5348C168.592 40.5348 167.83 40.8985 167.294 41.6311C166.829 42.276 166.595 43.0911 166.595 44.0752V50.5692H163.795V42.0903C163.798 40.791 163.771 39.4919 163.714 38.1939H166.153L166.255 40.5619H166.333C166.63 39.748 167.094 39.0916 167.733 38.6002C168.317 38.1708 169.027 37.9382 169.756 37.9372C170.015 37.9372 170.249 37.9553 170.456 37.9875L170.459 40.6109ZM182.981 43.7953C182.988 44.2134 182.954 44.6311 182.879 45.0425H174.479C174.511 46.2652 174.918 47.2016 175.698 47.8465C176.406 48.4217 177.321 48.7106 178.445 48.7106C179.689 48.7106 180.823 48.5172 181.844 48.1264L182.283 50.034C181.09 50.5447 179.682 50.7988 178.058 50.7988C176.104 50.7988 174.57 50.2339 173.453 49.1066C172.34 47.9781 171.782 46.4613 171.782 44.5615C171.782 42.6965 172.3 41.1423 173.339 39.9028C174.426 38.5795 175.896 37.9179 177.745 37.9179C179.561 37.9179 180.936 38.5795 181.87 39.9028C182.61 40.9514 182.981 42.2515 182.981 43.7953ZM180.311 43.0821C180.331 42.2657 180.147 41.5627 179.768 40.9682C179.283 40.202 178.537 39.8203 177.538 39.8203C176.622 39.8203 175.876 40.193 175.309 40.9411C174.843 41.5357 174.566 42.2502 174.48 43.0795L180.311 43.0821Z" fill="#221859"/>
<path d="M80.5405 24.5466C79.6649 24.5466 78.9074 24.5042 78.277 24.4326V15.0309C79.1588 14.8961 80.0499 14.8297 80.9421 14.8322C84.5523 14.8322 86.2149 16.5901 86.2149 19.4556C86.2149 22.7609 84.2511 24.5466 80.5405 24.5466ZM81.0691 16.0377C80.5819 16.0377 80.1669 16.067 79.8229 16.1371V23.284C80.0089 23.3133 80.3663 23.3264 80.8683 23.3264C83.2337 23.3264 84.5803 21.9938 84.5803 19.498C84.5803 17.2725 83.3622 16.0377 81.0691 16.0377ZM91.3961 24.6182C89.3614 24.6182 88.0428 23.1145 88.0428 21.0732C88.0428 18.9456 89.3895 17.4288 91.5113 17.4288C93.5164 17.4288 94.8645 18.8609 94.8645 20.9607C94.8645 23.1145 93.4751 24.6182 91.3961 24.6182ZM91.4552 18.5481C90.3374 18.5481 89.6213 19.5827 89.6213 21.0293C89.6213 22.4482 90.3522 23.4828 91.4404 23.4828C92.5286 23.4828 93.2595 22.3766 93.2595 21.0001C93.2595 19.5973 92.5434 18.5481 91.4552 18.5481ZM106.467 17.5706L104.289 24.4618H102.87L101.968 21.4692C101.744 20.7372 101.557 19.9944 101.409 19.2437H101.379C101.265 19.9948 101.05 20.7473 100.821 21.4692L99.8611 24.4618H98.4274L96.378 17.5706H97.9682L98.7567 20.8467C98.9427 21.627 99.0992 22.3635 99.2292 23.059H99.2587C99.3724 22.4789 99.5585 21.7541 99.8316 20.8613L100.821 17.572H102.082L103.028 20.7912C103.257 21.5715 103.443 22.3372 103.588 23.0605H103.629C103.73 22.3518 103.888 21.5992 104.102 20.7912L104.948 17.572L106.467 17.5706ZM114.485 24.4618H112.937V20.5048C112.937 19.2861 112.465 18.6753 111.533 18.6753C110.616 18.6753 109.986 19.4556 109.986 20.363V24.4618H108.438V19.5403C108.438 18.931 108.424 18.2778 108.381 17.5691H109.742L109.815 18.6329H109.857C110.274 17.8964 111.118 17.4288 112.065 17.4288C113.527 17.4288 114.486 18.535 114.486 20.3353L114.485 24.4618ZM118.752 24.4618H117.203V14.4084H118.752V24.4618ZM124.394 24.6182C122.361 24.6182 121.041 23.1145 121.041 21.0732C121.041 18.9456 122.387 17.4288 124.508 17.4288C126.514 17.4288 127.861 18.8609 127.861 20.9607C127.862 23.1145 126.471 24.6182 124.394 24.6182ZM124.452 18.5481C123.334 18.5481 122.618 19.5827 122.618 21.0293C122.618 22.4482 123.35 23.4828 124.435 23.4828C125.525 23.4828 126.254 22.3766 126.254 21.0001C126.256 19.5973 125.541 18.5481 124.452 18.5481ZM133.962 24.4618L133.85 23.6683H133.808C133.336 24.3069 132.646 24.6182 131.772 24.6182C130.525 24.6182 129.639 23.7531 129.639 22.59C129.639 20.8891 131.129 20.0094 133.708 20.0094V19.8823C133.708 18.9748 133.222 18.5204 132.263 18.5204C131.576 18.5204 130.973 18.6914 130.443 19.0318L130.129 18.025C130.773 17.6276 131.576 17.4288 132.519 17.4288C134.339 17.4288 135.257 18.3786 135.257 20.2797V22.8179C135.257 23.5135 135.288 24.0527 135.357 24.4633L133.962 24.4618ZM133.749 21.0293C132.031 21.0293 131.168 21.4414 131.168 22.419C131.168 23.1423 131.613 23.4959 132.23 23.4959C133.017 23.4959 133.749 22.9012 133.749 22.0931V21.0293ZM142.771 24.4618L142.699 23.3556H142.656C142.211 24.1915 141.464 24.6182 140.42 24.6182C138.742 24.6182 137.498 23.1569 137.498 21.1009C137.498 18.9456 138.787 17.4274 140.547 17.4274C141.479 17.4274 142.139 17.7386 142.511 18.364H142.542V14.4084H144.091V22.6046C144.091 23.2709 144.107 23.8948 144.149 24.4618H142.771ZM142.542 20.4069C142.542 19.4424 141.897 18.6198 140.912 18.6198C139.765 18.6198 139.063 19.6265 139.063 21.044C139.063 22.4336 139.791 23.3849 140.881 23.3849C141.854 23.3849 142.542 22.5476 142.542 21.5554V20.4069ZM153.912 24.6182C151.878 24.6182 150.56 23.1145 150.56 21.0732C150.56 18.9456 151.907 17.4288 154.027 17.4288C156.033 17.4288 157.38 18.8609 157.38 20.9607C157.382 23.1145 155.992 24.6182 153.912 24.6182ZM153.969 18.5481C152.853 18.5481 152.137 19.5827 152.137 21.0293C152.137 22.4482 152.868 23.4828 153.954 23.4828C155.044 23.4828 155.774 22.3766 155.774 21.0001C155.777 19.5973 155.06 18.5481 153.969 18.5481ZM165.702 24.4618H164.153V20.5048C164.153 19.2861 163.681 18.6753 162.749 18.6753C161.832 18.6753 161.203 19.4556 161.203 20.363V24.4618H159.654V19.5403C159.654 18.931 159.639 18.2778 159.596 17.5691H160.958L161.03 18.6329H161.073C161.488 17.8964 162.334 17.4274 163.279 17.4274C164.741 17.4274 165.702 18.5335 165.702 20.3338V24.4618ZM176.113 18.7191H174.411V22.0654C174.411 22.9173 174.709 23.3425 175.311 23.3425C175.584 23.3425 175.813 23.3133 175.998 23.2709L176.041 24.434C175.741 24.548 175.339 24.605 174.84 24.605C173.621 24.605 172.891 23.9387 172.891 22.194V18.7191H171.875V17.5706H172.891V16.3081L174.411 15.8536V17.5691H176.113V18.7191ZM184.305 24.4618H182.759V20.534C182.759 19.3007 182.288 18.6767 181.355 18.6767C180.553 18.6767 179.806 19.2159 179.806 20.3075V24.4618H178.26V14.4084H179.806V18.5481H179.837C180.324 17.7971 181.03 17.4274 181.931 17.4274C183.404 17.4274 184.305 18.5613 184.305 20.363V24.4618ZM192.698 21.3844H188.054C188.083 22.6893 188.956 23.4258 190.248 23.4258C190.935 23.4258 191.567 23.3118 192.125 23.0999L192.365 24.1637C191.707 24.4472 190.932 24.5889 190.03 24.5889C187.852 24.5889 186.563 23.2271 186.563 21.1156C186.563 19.0026 187.883 17.4142 189.855 17.4142C191.635 17.4142 192.751 18.7191 192.751 20.6903C192.761 20.923 192.743 21.1559 192.698 21.3844ZM191.279 20.2929C191.279 19.2291 190.737 18.478 189.747 18.478C188.859 18.478 188.156 19.2437 188.055 20.2929H191.279Z" fill="#221859"/>
</g>
<defs>
<clipPath id="clip0_121_1042">
<rect width="213" height="69" fill="white"/>
</clipPath>
</defs>
</svg>
