<svg width="539" height="433" viewBox="0 0 539 433" fill="none" xmlns="http://www.w3.org/2000/svg">
<g opacity="0.2">
<path d="M16.2497 514.212C12.9704 476.897 29.8552 397.847 123.629 380.171C217.402 362.496 255.702 290.792 263.13 257.15C269.809 224.06 296.661 159.97 350.629 168.336C404.596 176.702 426.596 115.923 430.85 84.4878C431.393 63.5317 444.355 18.307 491.867 5.05704" stroke="white" stroke-width="2"/>
<path d="M4.71891 501.976C1.43962 464.661 18.3245 385.611 112.098 367.936C205.872 350.26 244.171 278.556 251.599 244.914C258.279 211.824 285.13 147.735 339.098 156.1C393.066 164.466 415.066 103.687 419.32 72.252C419.862 51.2958 432.824 6.07112 480.336 -7.1788" stroke="white" stroke-width="2"/>
<path d="M-6.81166 489.739C-10.0909 452.423 6.79389 373.374 100.567 355.698C194.341 338.022 232.64 266.319 240.068 232.677C246.748 199.586 273.6 135.497 327.567 143.863C381.535 152.228 403.535 91.4494 407.789 60.0142C408.331 39.0581 421.294 -6.16667 468.805 -19.4166" stroke="white" stroke-width="2"/>
<path d="M-18.3423 477.503C-21.6215 440.187 -4.73671 361.138 89.0369 343.462C182.81 325.786 221.11 254.083 228.538 220.441C235.217 187.35 262.069 123.261 316.037 131.627C370.004 139.993 392.004 79.2136 396.259 47.7783C396.801 26.8222 409.763 -18.4025 457.275 -31.6524" stroke="white" stroke-width="2"/>
<path d="M-29.8729 465.265C-33.1522 427.95 -16.2674 348.901 77.5062 331.225C171.28 313.549 209.579 241.846 217.007 208.203C223.687 175.113 250.538 111.024 304.506 119.39C358.474 127.755 380.474 66.9763 384.728 35.541C385.27 14.5849 398.232 -30.6398 445.744 -43.8897" stroke="white" stroke-width="2"/>
<path d="M-41.4037 453.029C-44.683 415.714 -27.7982 336.664 65.9754 318.988C159.749 301.312 198.048 229.609 205.476 195.967C212.156 162.877 239.007 98.7874 292.975 107.153C346.943 115.519 368.943 54.74 373.197 23.3047C373.739 2.34858 386.702 -42.8761 434.213 -56.1261" stroke="white" stroke-width="2"/>
<path d="M-52.9342 440.792C-56.2135 403.477 -39.3286 324.427 54.4449 306.751C148.219 289.075 186.518 217.372 193.946 183.73C200.626 150.64 227.477 86.5503 281.445 94.9161C335.412 103.282 357.413 42.5029 361.667 11.0676C362.209 -9.88848 375.171 -55.1132 422.683 -68.3631" stroke="white" stroke-width="2"/>
<path d="M-64.4649 428.555C-67.7441 391.24 -50.8593 312.19 42.9143 294.514C136.688 276.838 174.987 205.135 182.415 171.493C189.095 138.403 215.946 74.3132 269.914 82.6791C323.882 91.0449 345.882 30.2658 350.136 -1.16942C350.678 -22.1255 363.64 -67.3503 411.152 -80.6002" stroke="white" stroke-width="2"/>
</g>
</svg>
